<svg width="46" height="66" viewBox="0 0 46 66" fill="none" xmlns="http://www.w3.org/2000/svg">
<path fill-rule="evenodd" clip-rule="evenodd" d="M14.3321 62.5297C15.7065 62.2924 15.5319 60.2832 14.3292 59.9463C13.6824 59.7657 13.0143 59.6664 12.3344 59.6225C15.5038 57.1768 18.3558 53.8556 20.5578 51.1371C24.2629 46.5617 27.2396 41.4589 29.3505 35.9615C33.8113 24.3419 32.455 6.27317 45.8356 0.340309C45.9861 0.273482 45.8767 0.0452657 45.7266 0.0802792C32.5098 3.14645 31.0604 18.0376 28.0892 28.8957C26.3604 35.2147 23.5202 41.1815 19.6083 46.4441C17.7022 49.0081 15.5524 51.3928 13.2117 53.5681C10.8393 55.7724 7.80934 57.389 5.63825 59.7552C5.31804 60.1051 5.19525 60.5538 5.22517 60.9898C4.9657 61.095 4.7092 61.204 4.45546 61.3177C5.27789 59.0045 6.26933 56.7583 7.28649 54.5188C7.39211 54.2872 7.12218 54.0678 6.92607 54.249C4.14248 56.8155 2.34799 60.0276 1.03701 63.5725C0.614548 64.7129 2.0299 65.4536 2.93303 65.0127C4.76399 64.1179 6.69883 63.4756 8.70026 63.0893C10.5718 62.7282 12.4619 62.8534 14.3321 62.5297Z" fill="white"/>
</svg>
