<svg width="70" height="12" viewBox="0 0 70 12" fill="none" xmlns="http://www.w3.org/2000/svg">
<path fill-rule="evenodd" clip-rule="evenodd" d="M68.5422 2.11889C65.6136 0.940797 62.3201 0.433061 59.2727 1.43513C58.7594 1.60376 58.8555 2.34342 59.3988 2.37068C61.1415 2.45753 62.8384 2.5892 64.4961 2.94217C62.7012 3.38153 60.8754 4.40578 59.2432 4.96295C56.5409 5.88556 53.7976 6.6862 51.0247 7.36533C45.4341 8.73562 39.7293 9.60325 33.9844 9.96361C22.5277 10.682 11.3299 9.26784 0.191089 6.64092C-0.00156434 6.59518 -0.06994 6.86499 0.110239 6.93337C10.9298 10.9976 22.8839 12.4233 34.3918 11.8804C40.0522 11.6134 45.6969 10.8659 51.2312 9.64853C54.1524 9.00589 57.0431 8.2265 59.8918 7.3159C61.9227 6.66633 64.7594 6.12857 66.479 4.67836C66.2494 5.20965 66.0197 5.74141 65.7897 6.27225C65.3443 7.3025 64.8172 8.18861 64.9317 9.32651C65.0047 10.0551 65.7689 10.3873 66.3367 9.90817C67.2038 9.17637 67.4524 8.17845 67.8442 7.13849C68.3163 5.88648 68.788 4.63493 69.2602 3.38292C69.4713 2.82205 69.0176 2.3097 68.5422 2.11889Z" fill="white"/>
</svg>
