<svg width="55" height="117" viewBox="0 0 55 117" fill="none" xmlns="http://www.w3.org/2000/svg">
<path fill-rule="evenodd" clip-rule="evenodd" d="M3.78539 67.9827C4.5778 67.7401 5.39396 67.498 6.22364 67.2712C5.46286 67.6377 4.64724 67.8844 3.78539 67.9827ZM18.2184 4.90034C18.1701 4.85848 18.1342 4.81739 18.1051 4.77651C18.1421 4.81933 18.1762 4.86361 18.2184 4.90034ZM52.2327 103.54C50.0433 103.372 46.4063 102.237 44.4996 103.589C44.3432 103.699 44.2917 103.874 44.3789 104.049C44.8854 105.067 46.0732 105.765 47.376 106.314C45.7352 106.233 43.6802 107.421 42.0353 107.48C38.5995 107.601 37.3726 105.893 35.9065 102.895C32.3128 95.5495 29.6925 87.68 27.9154 79.705C26.5494 73.5776 25.9057 66.8556 19.3132 64.1809C17.2566 63.347 15.1024 63.1132 12.9555 63.2926C13.3168 62.7292 13.6375 62.1428 13.9093 61.5398C17.0654 54.5382 14.0167 46.472 13.0371 39.3296C11.8921 30.9771 11.8278 21.3991 14.6892 13.3557C15.3119 11.6045 16.2329 9.68276 17.8899 8.68215C18.9275 8.05634 20.1347 7.96681 21.1366 7.3417C20.9025 8.15963 20.6777 8.9798 20.4733 9.8033C20.0482 11.5128 20.1037 13.2976 22.0792 13.8397C22.6719 14.0014 23.4216 13.8493 23.8394 13.3714C23.9267 13.2706 24.0143 13.1709 24.1017 13.0707C24.4648 12.6561 24.7465 12.0193 24.5315 11.46C24.4923 11.3583 24.4538 11.2564 24.4146 11.1548C24.2918 10.8356 24.0984 10.5859 23.8696 10.4009C24.0449 9.30562 24.6307 7.95656 24.8351 7.17152C25.2642 5.52247 25.6135 3.87573 25.9377 2.20325C26.1029 1.34963 25.5432 0.212794 24.5077 0.307975C20.4052 0.688262 16.3188 1.05755 12.238 1.62587C11.623 1.71046 11.8222 2.6015 12.3675 2.64824C14.1938 2.80457 16.0202 2.91769 17.8472 3.01308C17.7693 3.18979 17.7251 3.38658 17.7174 3.59121C17.3216 3.69514 16.777 3.98319 16.5623 4.07474C15.4866 4.53444 14.4843 5.1833 13.6427 6.00276C11.8271 7.77015 10.6867 10.1439 9.90242 12.5216C7.86664 18.6956 7.54543 25.804 7.86781 32.2475C8.20126 38.9001 10.0947 44.9973 11.3817 51.4725C12.077 54.9692 12.5134 58.7522 11.0149 62.0977C10.7536 62.6818 10.4421 63.2394 10.0942 63.7695C6.81095 64.5815 3.6555 66.2218 1.01651 68.0799C0.697446 68.3046 0.874538 68.8814 1.29586 68.7518C1.56579 68.6698 1.84135 68.5837 2.12023 68.4974C5.10169 69.2364 7.96572 68.2497 10.2313 66.3788C15.3867 65.5604 20.3233 66.333 22.3528 72.4946C23.4776 75.9108 23.7811 79.6278 24.5848 83.1287C25.4537 86.9155 26.5212 90.6568 27.7844 94.3313C28.9109 97.6065 30.1919 100.833 31.6073 103.993C32.7314 106.503 33.9736 109.245 36.3644 110.803C39.328 112.734 44.3775 112.479 47.6457 110.958C47.6038 111.174 47.554 111.387 47.5185 111.604C47.4772 111.858 47.4193 112.084 47.3737 112.271C47.3021 112.319 47.2383 112.363 47.1968 112.4C45.4395 113.953 46.9831 116.488 48.9543 116.676C51.284 116.897 52.0846 114.873 52.3148 112.974C52.6059 110.578 53.7225 108.63 54.3612 106.36C54.7723 104.897 53.6437 103.648 52.2327 103.54Z" fill="white"/>
</svg>
