<svg width="85" height="58" viewBox="0 0 85 58" fill="none" xmlns="http://www.w3.org/2000/svg">
<path fill-rule="evenodd" clip-rule="evenodd" d="M39.2296 42.0892C32.5951 42.8939 29.6991 36.3619 33.7828 31.529C37.4093 27.2383 42.9101 27.3864 47.8184 28.9654C47.96 34.7223 45.4696 41.3323 39.2296 42.0892ZM0.900837 2.9911C0.996561 3.17107 1.30329 3.07322 1.28131 2.87241C1.09715 1.1731 11.6201 2.67061 13.0425 2.82226C16.0512 3.14379 19.0509 3.58958 22.001 4.26883C28.1544 5.68497 34.1206 8.14525 38.9396 12.3043C42.6405 15.4999 45.6798 19.6356 47.0699 24.3578C42.4168 23.2425 37.4284 23.4491 33.4224 26.3563C29.7494 29.0224 26.9545 33.7196 27.9292 38.3719C28.9707 43.3395 33.8424 46.1862 38.7134 45.9403C44.4043 45.6534 48.6827 41.2466 50.3908 36.0448C51.0144 34.1451 51.3189 32.2375 51.3606 30.3516C62.2 35.0536 73.5027 42.8816 79.6288 52.9442C79.6716 53.0155 79.7233 53.0698 79.7699 53.1323C77.9685 53.1265 76.158 53.2028 74.5054 53.7438C73.0151 54.2309 73.0867 56.4506 74.6399 56.7924C77.3952 57.4018 80.4357 56.758 83.2314 56.5447C84.3355 56.4616 85.0906 55.4127 84.7777 54.3386C83.3606 49.4708 82.1157 44.5189 80.2972 39.7845C79.8923 38.7315 78.0312 38.8837 78.2192 40.1502C78.4728 41.8637 78.7987 43.5654 79.1585 45.2609C75.988 41.5077 72.2381 38.2889 68.1726 35.426C62.8557 31.6836 57.0356 27.9502 50.9089 25.5959C49.2967 17.9716 43.6431 11.1217 37.0426 7.07813C30.3327 2.96729 22.2503 1.4578 14.5125 0.868821C13.0187 0.755735 -1.0583 -0.702901 0.900837 2.9911Z" fill="white"/>
</svg>
