<svg width="52" height="45" viewBox="0 0 52 45" fill="none" xmlns="http://www.w3.org/2000/svg">
<path fill-rule="evenodd" clip-rule="evenodd" d="M27.3427 31.7744C28.174 35.3743 28.8841 42.6303 23.221 42.2334C19.6177 41.9803 15.5149 38.8748 15.0223 35.1436C14.4052 30.4673 19.4114 28.736 23.1548 28.5541C24.2325 28.5013 25.3188 28.537 26.4069 28.6343C26.7776 29.6622 27.0966 30.7086 27.3427 31.7744ZM51.7689 37.1457C45.2141 31.9777 36.918 27.9255 28.4864 26.6726C27.7408 24.9003 26.9004 23.2779 26.1175 21.95C21.5688 14.2361 13.912 7.13982 5.74544 3.39903C4.85285 2.99053 4.04469 3.86164 4.09705 4.66671C4.01577 4.22335 3.93995 3.77887 3.86957 3.33326C5.0388 3.19651 6.19216 3.24755 7.39001 3.49629C8.12194 3.64853 8.85462 4.02023 9.58529 4.11372C10.0205 4.16952 10.1545 3.88685 10.6205 4.0122C10.7691 4.05221 10.9338 3.89565 10.8173 3.75266C10.4981 3.3614 10.5481 2.93775 10.2124 2.55982C9.68381 1.96424 8.37906 1.49648 7.65809 1.26211C5.86254 0.678383 3.97094 0.600715 2.11222 0.860874C1.33593 0.969785 0.908602 1.67946 0.954965 2.41553C1.06835 4.22001 1.43783 6.00856 1.91723 7.74882C2.33296 9.25644 2.70774 10.9961 3.73736 12.2033C4.54413 13.1503 6.04795 12.5117 5.92728 11.2724C5.78031 9.76003 4.98298 8.32642 4.58213 6.85754C4.41019 6.2278 4.27581 5.59435 4.15395 4.95875C4.22472 5.1532 4.35524 5.33292 4.56174 5.47562C11.2336 10.0856 17.6984 14.2875 22.4394 21.067C23.6045 22.7317 24.6314 24.5037 25.4783 26.3562C25.2924 26.3439 25.1054 26.3234 24.9186 26.3134C18.7757 26.0003 10.3499 29.3079 12.8991 37.0065C14.7077 42.4711 23.8757 48.1806 28.5672 42.6635C31.5649 39.1386 30.997 33.8097 29.3853 29.0448C31.9779 29.5192 34.5428 30.2586 36.9823 30.9912C42.068 32.5177 46.9598 34.7815 51.5636 37.414C51.7462 37.5182 51.9453 37.2846 51.7689 37.1457Z" fill="white"/>
</svg>
