<svg width="37" height="11" viewBox="0 0 37 11" fill="none" xmlns="http://www.w3.org/2000/svg">
<path fill-rule="evenodd" clip-rule="evenodd" d="M0.259766 5.74224C0.259766 5.54977 0.336278 5.36518 0.47247 5.22909C0.608661 5.09299 0.793377 5.01653 0.985982 5.01653L33.6006 4.82406L30.4822 1.7093C30.3458 1.57304 30.2692 1.38821 30.2692 1.1955C30.2692 1.00279 30.3458 0.817966 30.4822 0.681697C30.6186 0.545428 30.8035 0.468872 30.9964 0.468872C31.1892 0.468872 31.3742 0.545428 31.5105 0.681697L35.8678 5.03597C35.9355 5.10338 35.9891 5.18346 36.0257 5.27163C36.0623 5.3598 36.0812 5.45432 36.0812 5.54977C36.0812 5.64523 36.0623 5.73975 36.0257 5.82791C35.9891 5.91608 35.9355 5.99616 35.8678 6.06358L31.5105 10.4178C31.3742 10.5541 31.1892 10.6307 30.9964 10.6307C30.8035 10.6307 30.6186 10.5541 30.4822 10.4178C30.3458 10.2816 30.2692 10.0968 30.2692 9.90404C30.2692 9.71133 30.3458 9.52651 30.4822 9.39024L33.6006 6.27548L0.985982 6.46795C0.793377 6.46795 0.608661 6.3915 0.47247 6.2554C0.336278 6.1193 0.259766 5.93471 0.259766 5.74224Z" fill="black"/>
</svg>
