<svg xmlns="http://www.w3.org/2000/svg" width="49" height="13" fill="none" viewBox="0 0 49 13"><path fill="#000EE6" fill-rule="evenodd" d="M0 6.72c0-.231.079-.453.22-.616a.702.702 0 0 1 .53-.255l45.188-.23-3.22-3.737a.947.947 0 0 1-.22-.616c0-.231.08-.453.22-.616a.702.702 0 0 1 .531-.255c.2 0 .39.091.531.255l4.5 5.222c.07.081.125.177.163.283a.993.993 0 0 1 0 .667.891.891 0 0 1-.163.283l-4.5 5.223a.703.703 0 0 1-.53.255c-.2 0-.391-.092-.532-.255a.947.947 0 0 1-.22-.617c0-.23.08-.453.22-.616l3.22-3.736L.75 7.59a.701.701 0 0 1-.53-.254A.946.946 0 0 1 0 6.72Z" clip-rule="evenodd"/></svg>