<svg width="30" height="21" viewBox="0 0 30 21" fill="none" xmlns="http://www.w3.org/2000/svg">
<path fill-rule="evenodd" clip-rule="evenodd" d="M0 10.5C0 10.2159 0.112875 9.94339 0.313794 9.74248C0.514713 9.54156 0.787218 9.42868 1.07136 9.42868H26.3405L19.5973 2.68768C19.3961 2.48651 19.2831 2.21366 19.2831 1.92916C19.2831 1.64466 19.3961 1.37181 19.5973 1.17064C19.7985 0.969463 20.0713 0.856445 20.3558 0.856445C20.6403 0.856445 20.9132 0.969463 21.1144 1.17064L29.6852 9.74152C29.785 9.84104 29.8642 9.95926 29.9182 10.0894C29.9722 10.2196 30 10.3591 30 10.5C30 10.641 29.9722 10.7805 29.9182 10.9107C29.8642 11.0408 29.785 11.159 29.6852 11.2586L21.1144 19.8294C20.9132 20.0306 20.6403 20.1436 20.3558 20.1436C20.0713 20.1436 19.7985 20.0306 19.5973 19.8294C19.3961 19.6283 19.2831 19.3554 19.2831 19.0709C19.2831 18.7864 19.3961 18.5136 19.5973 18.3124L26.3405 11.5714H1.07136C0.787218 11.5714 0.514713 11.4585 0.313794 11.2576C0.112875 11.0567 0 10.7842 0 10.5Z" fill="black"/>
</svg>
