<svg version="1.2" xmlns="http://www.w3.org/2000/svg" viewBox="0 0 13 13" width="13" height="13"><style></style><path fill-rule="evenodd" d="m0.5 6.7q0-0.3 0.2-0.6 0.1-0.1 0.1-0.1 0.1 0 0.2-0.1 0 0 0.1 0 0.1 0 0.1-0.1l8.7-0.2-3.2-3.7q0-0.1-0.1-0.2 0 0 0-0.1-0.1-0.1-0.1-0.2 0-0.1 0-0.1 0-0.4 0.2-0.7 0.1 0 0.1-0.1 0.1 0 0.2 0 0-0.1 0.1-0.1 0.1 0 0.1 0 0.4 0 0.6 0.3l4.5 5.2q0.1 0.1 0.1 0.3 0.1 0 0.1 0.1 0 0.1 0 0.2 0 0.1 0 0.2 0 0-0.1 0.1 0 0.1 0 0.1 0 0 0 0.1 0 0-0.1 0 0 0.1 0 0.1l-4.5 5.2q-0.1 0.1-0.1 0.1-0.1 0.1-0.2 0.1 0 0-0.1 0.1-0.1 0-0.1 0-0.4 0-0.6-0.3 0 0-0.1-0.1 0-0.1 0-0.2-0.1 0-0.1-0.1 0-0.1 0-0.2 0-0.3 0.2-0.6l3.2-3.7-8.6 0.2q-0.1 0-0.2 0-0.1 0-0.1-0.1-0.1 0-0.2-0.1 0 0-0.1-0.1 0 0-0.1-0.1 0-0.1 0-0.2-0.1 0-0.1-0.1 0-0.1 0-0.2z"/></svg>