<svg width="16" height="11" viewBox="0 0 16 11" fill="none" xmlns="http://www.w3.org/2000/svg">
<path d="M13.6 0H2.4C1.76348 0 1.15303 0.21075 0.702944 0.585887C0.252856 0.961023 0 1.46982 0 2.00034V8.66815C0 9.19867 0.252856 9.70747 0.702944 10.0826C1.15303 10.4577 1.76348 10.6685 2.4 10.6685H13.6C14.2365 10.6685 14.847 10.4577 15.2971 10.0826C15.7471 9.70747 16 9.19867 16 8.66815V2.00034C16 1.46982 15.7471 0.961023 15.2971 0.585887C14.847 0.21075 14.2365 0 13.6 0ZM13.6 1.33356L8.4 4.31407C8.27839 4.37259 8.14043 4.4034 8 4.4034C7.85957 4.4034 7.72162 4.37259 7.6 4.31407L2.4 1.33356H13.6Z" fill="#6F6F6F"/>
</svg>
