<svg width="397" height="368" viewBox="0 0 397 368" fill="none" xmlns="http://www.w3.org/2000/svg">
<path d="M304.5 332C353.803 332 392 282.554 392 224C392 165.446 353.803 116 304.5 116C255.197 116 217 165.446 217 224C217 282.554 255.197 332 304.5 332Z" fill="white" stroke="black" stroke-width="10"/>
<path d="M100.5 334C154.168 334 196 280.816 196 217.5C196 154.184 154.168 101 100.5 101C46.8325 101 5 154.184 5 217.5C5 280.816 46.8325 334 100.5 334Z" fill="white" stroke="black" stroke-width="10"/>
<path fill-rule="evenodd" clip-rule="evenodd" d="M110.338 3.76919C107.744 4.35246 103.401 5.73846 100.688 6.84854L95.7538 8.86641L95.3378 13.103C95.1091 15.4333 94.8632 17.018 94.791 16.6248C94.7188 16.2317 94.3185 16.3925 93.9018 16.9822C93.3307 17.7892 93.0533 17.8336 92.781 17.1609C92.3514 16.1023 90.3928 15.9522 90.3928 16.9779C90.3928 17.7614 88.4043 17.6184 86.9861 16.7335C86.4879 16.4226 88.6178 14.3067 88.8444 13.9407C89.7551 12.4668 85.6101 15.0351 80.4493 18.8929C73.2334 24.2868 59.1797 38.4198 51.7859 47.7186C41.9602 60.0753 30.3312 78.778 27.5249 86.7366C26.7922 88.8123 26.7965 88.8116 28.7486 86.357C45.5314 65.2533 65.8373 45.7079 81.2291 35.8422C88.1955 31.3761 97.6845 26.755 104.689 24.4161C110.335 22.5312 111.574 22.3861 122.201 22.3661C132.031 22.3475 134.43 22.5734 139.274 23.9758C150.519 27.2324 158.957 31.5477 169.199 39.2775C172.247 41.5777 174.739 43.2654 174.739 43.0295C174.739 41.8072 169.232 31.84 166.666 28.419C153.352 10.6663 128.336 -0.28086 110.338 3.76919ZM269.311 4.4554C253.67 8.4983 239.558 17.9622 231.447 29.8486C228.893 33.592 223.841 43.4298 224.473 43.4298C224.711 43.4298 226.564 42.0266 228.593 40.3111C236.505 33.6199 249.33 26.8772 259.443 24.0909C268.134 21.6963 282.657 21.3375 290.511 23.3239C308.471 27.8658 325.772 39.2875 347.429 60.9016C354.542 68.0003 362.86 76.9445 365.913 80.778C368.966 84.6115 371.595 87.7473 371.754 87.7473C372.266 87.7473 369.897 82.55 366.542 76.3105C357.194 58.9273 342.589 40.3376 327.025 26.0109C321.138 20.5913 311.684 13.4082 310.439 13.4082C310.107 13.4082 309.836 14.3732 309.836 15.5526C309.836 17.8993 308.22 18.5141 307.138 16.5798C306.57 15.5662 306.426 15.5662 305.584 16.5798C304.363 18.0509 302.716 17.9965 301.539 16.4461C300.248 14.7456 300.311 12.6298 301.711 10.6305C303.095 8.65413 302.877 8.44969 296.97 6.19736C286.961 2.38105 279.222 1.89356 269.311 4.4554ZM304.594 11.0258C303.921 11.6984 304 14.8378 304.689 14.8378C305.843 14.8378 306.802 13.2503 306.454 11.9186C306.085 10.5076 305.427 10.1924 304.594 11.0258ZM90.4672 11.9172C89.9189 12.2646 89.6673 13.0644 89.9089 13.6934C90.5637 15.399 91.6101 15.0773 91.9975 13.0508C92.3621 11.1423 92.0533 10.9129 90.4672 11.9172ZM307.93 13.0194C307.93 13.5919 308.203 13.8914 308.537 13.6849C308.871 13.4783 308.96 13.0101 308.733 12.6441C308.155 11.7092 307.93 11.8142 307.93 13.0194ZM87.5336 100.685C80.9668 101.689 68.886 105.872 62.7122 109.28C50.2933 116.136 37.0867 128.45 28.908 140.8C-4.99632 191.999 1.14093 267.826 42.5399 309.225C54.7308 321.416 68.2362 329.228 83.7402 333.055C92.5965 335.241 108.129 335.261 116.889 333.095C128.428 330.244 139.397 324.949 148.876 317.655C153.402 314.173 166.161 301.12 166.161 299.973C166.161 299.571 165.837 299.444 165.44 299.689C164.234 300.435 161.733 299.294 162.156 298.191C162.369 297.636 162.382 297.183 162.186 297.183C161.989 297.183 158.703 300.266 154.881 304.035C146.962 311.844 136.623 319.082 128.487 322.511C107.239 331.468 83.3292 329.807 63.4564 317.996C37.3348 302.47 18.7843 272.095 13.5842 236.334C12.1388 226.394 12.1345 206.56 13.5749 196.928C17.6363 169.772 28.2625 147.299 45.0532 130.356C69.8302 105.355 103.878 99.5743 133.234 115.386C141.798 119.999 146.212 123.394 154.435 131.692C184.011 161.538 195.086 212.762 181.637 257.512C180.692 260.657 179.397 264.476 178.758 265.998C178.12 267.521 177.598 268.887 177.598 269.036C177.598 269.185 178.724 269.306 180.1 269.306C181.596 269.306 182.623 269.666 182.656 270.2C182.789 272.391 187.816 255.962 189.382 248.22C195.819 216.382 192.304 185.468 179.048 157.348C165.59 128.799 143.075 108.883 116.483 102.007C109.775 100.273 94.7295 99.5858 87.5336 100.685ZM291.609 118.108C276.328 121.461 262.984 129.325 251.165 141.943C237.307 156.739 228.453 174.569 223.593 197.469C221.771 206.058 221.621 208.005 221.608 223.202C221.592 243.722 222.72 250.823 228.764 268.251L231.248 275.415L234.018 275.152L236.787 274.888L235.119 271.115C232.718 265.685 229.307 254.2 228.003 247.147C219.355 200.405 237.406 152.893 271.594 132.412C283.255 125.426 295.906 122.261 309.121 123.023C342.715 124.959 371.866 153.043 382.316 193.537C385.46 205.72 385.965 210.289 385.91 226.061C385.864 239.441 385.652 242.05 383.962 250.079C379.272 272.354 370.252 289.773 356.007 304.063C348.07 312.026 340.606 317.29 332.418 320.698C322.638 324.769 319.13 325.411 306.619 325.414C296.807 325.416 294.377 325.183 289.513 323.775C269.874 318.09 252.995 303.81 240.351 282.184L237.641 277.549V282.777C237.641 288.005 237.641 288.005 242.076 294.56C248.009 303.331 259.137 314.4 267.55 319.901C298.049 339.842 334.486 334.98 360.595 307.484C401.621 264.28 401.192 184.574 359.701 141.624C347.53 129.025 334.124 121.31 318.98 118.189C312.29 116.811 297.72 116.768 291.609 118.108ZM117.913 192.074C110.755 193.86 104.381 198.425 99.6552 205.155C95.6545 210.853 93.563 215.925 92.1169 223.443C88.2985 243.288 96.999 264.096 112.315 271.747C133.855 282.507 156.869 262.495 156.869 233.004C156.869 213.977 146.009 196.863 131.185 192.528C127.143 191.347 121.592 191.156 117.913 192.074ZM277.16 202.402C267.185 205.638 259.552 214.351 255.774 226.813C254.837 229.907 254.488 233.399 254.497 239.642C254.506 247.112 254.759 248.942 256.453 253.815C259.982 263.97 266.593 271.87 274.655 275.571C280.55 278.276 288.438 278.243 294.468 275.486C302.815 271.671 309.706 262.831 312.649 252.165C314.46 245.604 314.64 234.455 313.037 228.177C309.155 212.969 297.696 202.027 285.203 201.597C282.396 201.5 278.841 201.856 277.16 202.402ZM144.867 218.662C147.645 220.64 149.006 223.97 149.006 228.791C149.006 233.465 147.003 236.893 143.174 238.772C140.74 239.966 140.391 239.973 137.657 238.879C132.373 236.765 129.869 229.944 132.167 223.926C134.56 217.659 140.184 215.327 144.867 218.662ZM274.286 227.686C278.407 231.606 278.521 239.027 274.527 243.385C269.099 249.307 261.225 244.488 261.233 235.245C261.235 230.979 263.228 227.445 266.426 226.032C269.315 224.756 271.743 225.267 274.286 227.686ZM175.271 274.537C174.312 276.862 174.141 278.619 174.5 282.441C174.931 287.026 175.025 287.236 175.893 285.579C176.733 283.977 177.478 272.522 176.788 271.832C176.632 271.675 175.949 272.892 175.271 274.537ZM178.641 277.932C178.382 278.35 178.323 278.847 178.51 279.035C178.698 279.222 179.041 278.879 179.274 278.272C179.758 277.012 179.346 276.791 178.641 277.932ZM167.412 289.495C166.725 290.551 166.161 292.23 166.161 293.227C166.161 294.671 166.515 295.039 167.906 295.039C168.866 295.039 169.881 294.667 170.161 294.213C170.468 293.717 170.358 293.582 169.886 293.874C169.367 294.195 169.026 293.208 168.882 290.967L168.663 287.575L167.412 289.495Z" fill="black"/>
<path d="M182.904 269.121H177.9L170.036 283.774L161.46 297.713C155.767 304.476 156.944 304.574 160.344 304.858L160.385 304.861C163.816 305.147 179.328 282.345 182.904 269.121Z" fill="black" stroke="black" stroke-linecap="round"/>
<path d="M241.502 292.049L244.381 289.138L238.319 279.127L234.03 269.48C232.257 263.88 230.866 264.989 229.492 266.806C228.117 268.623 235.374 285.368 241.502 292.049Z" fill="black" stroke="black" stroke-linecap="round"/>
<path d="M324.795 25.3757C319.934 17.6559 299.658 6.79097 294.773 6.07617C292.867 9.7693 289.055 18.3707 289.055 18.9425C289.055 19.5144 301.921 22.7548 308.354 24.3035C312.762 25.7331 329.655 33.0956 324.795 25.3757Z" fill="black" stroke="black" stroke-linecap="round"/>
<path d="M324.795 25.3757C319.934 17.6559 299.658 6.79097 294.773 6.07617C292.867 9.7693 289.055 18.3707 289.055 18.9425C289.055 19.5144 301.921 22.7548 308.354 24.3035C312.762 25.7331 329.655 33.0956 324.795 25.3757Z" fill="black" stroke="black" stroke-linecap="round"/>
<path d="M104.352 6.25907C98.8683 6.46934 87.1086 13.7652 85.267 16.095C86.6177 18.1989 89.9523 22.7724 90.2502 22.9444C90.5482 23.1164 96.1066 17.3878 98.8486 14.5019C100.919 12.6355 109.836 6.0488 104.352 6.25907Z" fill="black" stroke="black" stroke-linecap="round"/>
<ellipse cx="124" cy="233" rx="33" ry="43" fill="black"/>
<ellipse cx="284.5" cy="240" rx="30.5" ry="39" fill="black"/>
<ellipse cx="140" cy="228.5" rx="9" ry="11.5" fill="black"/>
<ellipse cx="269" cy="235.5" rx="9" ry="11.5" fill="black"/>
<path d="M259.5 345C286.394 363.058 333.835 373.454 381.411 326.045C387.85 323.794 347.759 404.262 259.5 345Z" fill="black" stroke="black" stroke-width="0.5" stroke-linecap="round"/>
<path d="M149.578 345.002C122.684 363.06 75.2436 373.456 27.6671 326.046C21.2277 323.796 61.3193 404.264 149.578 345.002Z" fill="black" stroke="black" stroke-width="0.5" stroke-linecap="round"/>
</svg>
