<svg width="16" height="16" viewBox="0 0 16 16" fill="none" xmlns="http://www.w3.org/2000/svg">
<path d="M10.5984 9.56955C10.4824 9.53794 9.7495 9.2626 10.2075 8.10226H10.2009C11.3947 7.07748 12.307 5.42846 12.307 3.80496C12.307 1.30864 10.3154 0 8.00073 0C5.6846 0 3.70392 1.30803 3.70392 3.80496C3.70392 5.43514 4.61112 7.09085 5.81222 8.1132C6.2804 9.13678 5.44321 9.51667 5.26819 9.57015C2.84412 10.3008 0 11.6325 0 12.9472V13.4402C0 15.2314 4.167 15.6386 8.02334 15.6386C11.8855 15.6386 16 15.2314 16 13.4402V12.9472C16 11.593 13.142 10.2716 10.5984 9.56955Z" fill="#6F6F6F"/>
</svg>
