<svg width="16" height="14" viewBox="0 0 16 14" fill="none" xmlns="http://www.w3.org/2000/svg">
<path d="M0.745859 2.10712L2.81379 0.385173C2.95966 0.263057 3.13305 0.166165 3.32398 0.100065C3.51492 0.0339648 3.71964 -4.13003e-05 3.92639 3.76426e-08C4.34775 3.76426e-08 4.74386 0.137562 5.04094 0.385173L7.26615 2.23983C7.41266 2.36141 7.52891 2.50593 7.60822 2.66507C7.68753 2.82421 7.72833 2.99484 7.72828 3.16716C7.72828 3.51835 7.56323 3.8485 7.26615 4.09611L5.63899 5.4523C6.01987 6.15203 6.54942 6.78858 7.20207 7.33124C7.85309 7.87653 8.61676 8.3195 9.45641 8.63888L11.0836 7.28269C11.2294 7.16057 11.4028 7.06368 11.5938 6.99758C11.7847 6.93148 11.9894 6.89747 12.1962 6.89751C12.6175 6.89751 13.0136 7.03508 13.3107 7.28269L15.5379 9.13573C15.6846 9.25753 15.8009 9.40231 15.8802 9.56174C15.9595 9.72116 16.0002 9.89209 16 10.0647C16 10.4159 15.835 10.746 15.5379 10.9936L13.4738 12.714C13 13.1105 12.3457 13.3354 11.6739 13.3354C11.5321 13.3354 11.3962 13.3257 11.2622 13.3063C8.64477 12.947 6.04869 11.7866 3.95358 10.042C1.8604 8.29903 0.470135 6.13688 0.0332479 3.94883C-0.0987892 3.28045 0.167227 2.59264 0.745859 2.10712Z" fill="#6F6F6F"/>
</svg>
