<svg width="14" height="24" viewBox="0 0 14 24" fill="none" xmlns="http://www.w3.org/2000/svg">
<path d="M13.9839 1.39534C13.9839 1.22824 13.9175 1.06797 13.7993 0.94981C13.6811 0.831647 13.5209 0.765264 13.3538 0.765264H10.2034C8.61698 0.68624 7.0638 1.23832 5.88318 2.30087C4.70257 3.36343 3.9905 4.85007 3.90256 6.43599V9.83843H0.752151C0.585044 9.83843 0.42478 9.90482 0.306617 10.023C0.188454 10.1411 0.12207 10.3014 0.12207 10.4685V13.7449C0.12207 13.912 0.188454 14.0723 0.306617 14.1905C0.42478 14.3086 0.585044 14.375 0.752151 14.375H3.90256V22.8181C3.90256 22.9852 3.96894 23.1455 4.0871 23.2636C4.20527 23.3818 4.36553 23.4482 4.53264 23.4482H8.31313C8.48023 23.4482 8.6405 23.3818 8.75866 23.2636C8.87682 23.1455 8.94321 22.9852 8.94321 22.8181V14.375H12.2448C12.3849 14.377 12.5217 14.3323 12.6336 14.2478C12.7454 14.1634 12.8259 14.0441 12.8623 13.9088L13.7696 10.6323C13.7947 10.5392 13.7981 10.4416 13.7795 10.347C13.7609 10.2524 13.7208 10.1633 13.6624 10.0866C13.604 10.01 13.5287 9.9477 13.4424 9.90467C13.3562 9.86163 13.2612 9.83897 13.1648 9.83843H8.94321V6.43599C8.97455 6.12407 9.12103 5.83504 9.35405 5.62532C9.58707 5.41561 9.88988 5.30028 10.2034 5.30185H13.3538C13.5209 5.30185 13.6811 5.23547 13.7993 5.1173C13.9175 4.99914 13.9839 4.83887 13.9839 4.67177V1.39534Z" fill="black"/>
</svg>
