<svg width="24" height="24" viewBox="0 0 24 24" fill="none" xmlns="http://www.w3.org/2000/svg">
<path d="M2.96622 5.51838C4.489 5.51838 5.72346 4.28392 5.72346 2.76114C5.72346 1.23836 4.489 0.00390625 2.96622 0.00390625C1.44344 0.00390625 0.208984 1.23836 0.208984 2.76114C0.208984 4.28392 1.44344 5.51838 2.96622 5.51838Z" fill="black"/>
<path d="M8.32683 8.1632V23.4603H13.0764V15.8956C13.0764 13.8995 13.4519 11.9664 15.9269 11.9664C18.3678 11.9664 18.3981 14.2485 18.3981 16.0216V23.4616H23.1501V15.0727C23.1501 10.9519 22.263 7.78516 17.4466 7.78516C15.1342 7.78516 13.5842 9.05414 12.9504 10.2551H12.8861V8.1632H8.32683ZM0.586914 8.1632H5.34403V23.4603H0.586914V8.1632Z" fill="black"/>
</svg>
