<svg width="25" height="24" viewBox="0 0 25 24" fill="none" xmlns="http://www.w3.org/2000/svg">
<path d="M12.7865 7.86902C10.6186 7.86902 8.84946 9.63817 8.84946 11.806C8.84946 13.9739 10.6186 15.7431 12.7865 15.7431C14.9544 15.7431 16.7235 13.9739 16.7235 11.806C16.7235 9.63817 14.9544 7.86902 12.7865 7.86902ZM24.5946 11.806C24.5946 10.1757 24.6094 8.56014 24.5178 6.93276C24.4263 5.04251 23.995 3.36492 22.6128 1.98268C21.2276 0.597486 19.553 0.169228 17.6627 0.0776696C16.0324 -0.0138891 14.4168 0.000878503 12.7894 0.000878503C11.1591 0.000878503 9.54354 -0.0138891 7.91616 0.0776696C6.02591 0.169228 4.34832 0.60044 2.96608 1.98268C1.58089 3.36787 1.15263 5.04251 1.06107 6.93276C0.969509 8.56309 0.984277 10.1787 0.984277 11.806C0.984277 13.4334 0.969509 15.0519 1.06107 16.6793C1.15263 18.5696 1.58384 20.2472 2.96608 21.6294C4.35127 23.0146 6.02591 23.4429 7.91616 23.5344C9.54649 23.626 11.1621 23.6112 12.7894 23.6112C14.4198 23.6112 16.0353 23.626 17.6627 23.5344C19.553 23.4429 21.2306 23.0116 22.6128 21.6294C23.998 20.2442 24.4263 18.5696 24.5178 16.6793C24.6123 15.0519 24.5946 13.4364 24.5946 11.806ZM12.7865 17.8637C9.43426 17.8637 6.72885 15.1583 6.72885 11.806C6.72885 8.45381 9.43426 5.7484 12.7865 5.7484C16.1387 5.7484 18.8441 8.45381 18.8441 11.806C18.8441 15.1583 16.1387 17.8637 12.7865 17.8637ZM19.0922 6.91503C18.3095 6.91503 17.6775 6.28298 17.6775 5.50031C17.6775 4.71763 18.3095 4.08558 19.0922 4.08558C19.8749 4.08558 20.507 4.71763 20.507 5.50031C20.5072 5.68616 20.4708 5.87023 20.3997 6.04198C20.3287 6.21372 20.2245 6.36977 20.0931 6.50119C19.9617 6.63261 19.8056 6.73681 19.6339 6.80782C19.4621 6.87883 19.2781 6.91527 19.0922 6.91503Z" fill="black"/>
</svg>
