<svg width="30" height="25" viewBox="0 0 30 25" fill="none" xmlns="http://www.w3.org/2000/svg">
<path d="M29.209 3.51696C28.1567 3.98322 27.0264 4.29826 25.838 4.44066C27.0642 3.70698 27.9815 2.55226 28.4188 1.19196C27.2668 1.87622 26.0061 2.35786 24.6913 2.61595C23.8071 1.67191 22.636 1.04619 21.3598 0.835933C20.0836 0.625672 18.7737 0.842634 17.6334 1.45313C16.4931 2.06363 15.5863 3.03352 15.0537 4.2122C14.5212 5.39088 14.3926 6.71242 14.6881 7.97164C12.3539 7.85444 10.0704 7.24774 7.98583 6.19091C5.90127 5.13408 4.06221 3.65074 2.58802 1.83717C2.08395 2.70668 1.79412 3.71481 1.79412 4.78847C1.79356 5.755 2.03157 6.70674 2.48705 7.55923C2.94253 8.41171 3.60139 9.1386 4.40517 9.67538C3.473 9.64572 2.5614 9.39384 1.74623 8.9407V9.01631C1.74614 10.3719 2.21505 11.6858 3.07341 12.735C3.93177 13.7843 5.12671 14.5042 6.45546 14.7727C5.59071 15.0068 4.6841 15.0412 3.80408 14.8735C4.17897 16.04 4.90923 17.06 5.89263 17.7907C6.87602 18.5215 8.06332 18.9265 9.28831 18.9489C7.20883 20.5813 4.64068 21.4668 1.997 21.4629C1.5287 21.4631 1.0608 21.4357 0.595703 21.381C3.27919 23.1064 6.40296 24.0221 9.59326 24.0185C20.3929 24.0185 26.2967 15.0739 26.2967 7.31635C26.2967 7.06432 26.2904 6.80977 26.2791 6.55773C27.4275 5.72725 28.4187 4.69886 29.2064 3.52074L29.209 3.51696Z" fill="black"/>
</svg>
