<svg version="1.2" xmlns="http://www.w3.org/2000/svg" viewBox="0 0 30 21" width="30" height="21"><style>.a{fill:#fff}</style><path fill-rule="evenodd" class="a" d="m0 10.5c0-0.3 0.1-0.6 0.3-0.8 0.2-0.2 0.5-0.3 0.8-0.3h25.2l-6.7-6.7c-0.2-0.2-0.3-0.5-0.3-0.8 0-0.3 0.1-0.5 0.3-0.7 0.2-0.2 0.5-0.3 0.8-0.3 0.2 0 0.5 0.1 0.7 0.3l8.6 8.5q0.1 0.2 0.2 0.4 0.1 0.2 0.1 0.4 0 0.2-0.1 0.4-0.1 0.2-0.2 0.4l-8.6 8.5c-0.2 0.2-0.5 0.3-0.7 0.3-0.3 0-0.6-0.1-0.8-0.3-0.2-0.2-0.3-0.4-0.3-0.7 0-0.3 0.1-0.6 0.3-0.8l6.7-6.7h-25.2c-0.3 0-0.6-0.1-0.8-0.3-0.2-0.2-0.3-0.5-0.3-0.8z"/></svg>